<svg width="144" height="10" viewBox="0 0 144 10" fill="none" xmlns="http://www.w3.org/2000/svg">
<g id="PRODUCT DEVELOPMENT">
<path id="Vector" d="M139.639 9.31606V2.38737H138.378C138.216 2.38737 138.124 2.47991 138.124 2.64185V3.13923H136.793V1.84372C136.793 1.30006 136.979 1.10342 137.534 1.10342H143.259C143.815 1.10342 144 1.30006 144 1.84372V3.13923H142.67V2.64185C142.67 2.47991 142.577 2.38737 142.415 2.38737H141.154V9.31606H139.639Z" fill="#222222"/>
<path id="Vector_2" d="M128.112 9.31606V8.03211H128.609C128.771 8.03211 128.864 7.93958 128.864 7.77764V1.10342H130.229L133.34 5.64929C133.664 6.12354 134.023 6.806 134.023 6.806H134.046C134.046 6.806 133.965 6.12354 133.965 5.64929V1.88999C133.965 1.34633 134.196 1.10342 134.751 1.10342H136.232V2.38737H135.735C135.573 2.38737 135.48 2.47991 135.48 2.64185V9.31606H134.127L131.004 4.78176C130.68 4.31908 130.321 3.62505 130.321 3.62505H130.298C130.298 3.62505 130.379 4.30751 130.379 4.78176V8.5295C130.379 9.08472 130.148 9.31606 129.593 9.31606H128.112Z" fill="#222222"/>
<path id="Vector_3" d="M122.177 8.5295V2.38737H121.425V1.10342H126.387C126.931 1.10342 127.174 1.34633 127.174 1.88999V3.13923H125.797V2.64185C125.797 2.47991 125.705 2.38737 125.543 2.38737H123.692V4.53885H126.352V5.8228H123.692V7.77764C123.692 7.93958 123.784 8.03211 123.946 8.03211H125.843C126.005 8.03211 126.098 7.93958 126.098 7.77764V7.28025H127.474V8.5295C127.474 9.08472 127.231 9.31606 126.688 9.31606H122.963C122.408 9.31606 122.177 9.08472 122.177 8.5295Z" fill="#222222"/>
<path id="Vector_4" d="M111.175 9.31606V8.03211H111.534C111.695 8.03211 111.776 7.93958 111.788 7.77764L112.32 1.10342H113.893L115.582 5.0131C115.779 5.48735 115.987 6.11198 115.987 6.11198H116.01C116.01 6.11198 116.218 5.48735 116.415 5.0131L118.104 1.10342H119.677L120.209 7.77764C120.22 7.93958 120.301 8.03211 120.463 8.03211H120.822V9.31606H119.515C118.971 9.31606 118.786 9.08472 118.74 8.5295L118.462 4.8743C118.416 4.33064 118.451 3.60192 118.451 3.60192H118.428C118.428 3.60192 118.185 4.41161 117.976 4.8743L116.611 7.90488H115.385L114.02 4.8743C113.812 4.41161 113.569 3.59035 113.569 3.59035H113.546C113.546 3.59035 113.581 4.33064 113.535 4.8743L113.269 8.5295C113.222 9.08472 113.026 9.31606 112.482 9.31606H111.175Z" fill="#222222"/>
<path id="Vector_5" d="M105.187 9.31606V2.38737H104.436V1.10342H108.195C109.733 1.10342 110.809 2.17916 110.809 3.77542C110.809 5.37168 109.733 6.48212 108.195 6.48212H106.703V9.31606H105.187ZM106.703 5.18661H107.917C108.773 5.18661 109.259 4.63139 109.259 3.77542C109.259 2.93102 108.773 2.38737 107.94 2.38737H106.703V5.18661Z" fill="#222222"/>
<path id="Vector_6" d="M95.2057 5.15189C95.2057 2.80377 97.0333 0.9646 99.4508 0.9646C101.868 0.9646 103.696 2.80377 103.696 5.15189C103.696 7.56941 101.868 9.45485 99.4508 9.45485C97.0333 9.45485 95.2057 7.56941 95.2057 5.15189ZM96.7788 5.15189C96.7788 6.79442 97.9702 8.04366 99.4508 8.04366C100.931 8.04366 102.123 6.79442 102.123 5.15189C102.123 3.57876 100.931 2.37579 99.4508 2.37579C97.9702 2.37579 96.7788 3.57876 96.7788 5.15189Z" fill="#222222"/>
<path id="Vector_7" d="M89.5537 8.5295V2.64185C89.5537 2.47991 89.4612 2.38737 89.2993 2.38737H88.8019V1.10342H90.2825C90.8377 1.10342 91.069 1.34633 91.069 1.88999V7.77764C91.069 7.93958 91.1616 8.03211 91.3235 8.03211H93.1164C93.2783 8.03211 93.3709 7.93958 93.3709 7.77764V7.28025H94.7474V8.5295C94.7474 9.08472 94.516 9.31606 93.9608 9.31606H90.3403C89.7851 9.31606 89.5537 9.08472 89.5537 8.5295Z" fill="#222222"/>
<path id="Vector_8" d="M82.8665 8.5295V2.38737H82.1147V1.10342H87.077C87.6206 1.10342 87.8635 1.34633 87.8635 1.88999V3.13923H86.4871V2.64185C86.4871 2.47991 86.3945 2.38737 86.2326 2.38737H84.3818V4.53885H87.0423V5.8228H84.3818V7.77764C84.3818 7.93958 84.4744 8.03211 84.6363 8.03211H86.5333C86.6953 8.03211 86.7878 7.93958 86.7878 7.77764V7.28025H88.1643V8.5295C88.1643 9.08472 87.9214 9.31606 87.3777 9.31606H83.6531C83.0979 9.31606 82.8665 9.08472 82.8665 8.5295Z" fill="#222222"/>
<path id="Vector_9" d="M76.972 9.31606L74.5082 2.64185C74.4388 2.44521 74.3463 2.38737 74.1496 2.38737H73.9414V1.10342H74.9015C75.4798 1.10342 75.688 1.2538 75.8731 1.77432L77.4462 6.35489C77.6082 6.81757 77.7585 7.55786 77.7585 7.55786H77.7817C77.7817 7.55786 77.9321 6.81757 78.094 6.35489L79.6671 1.77432C79.8522 1.2538 80.0488 1.10342 80.6272 1.10342H81.5988V2.38737H81.379C81.1824 2.38737 81.0899 2.44521 81.0205 2.64185L78.5682 9.31606H76.972Z" fill="#222222"/>
<path id="Vector_10" d="M68.2721 8.5295V2.38737H67.5203V1.10342H72.4825C73.0262 1.10342 73.2691 1.34633 73.2691 1.88999V3.13923H71.8926V2.64185C71.8926 2.47991 71.8001 2.38737 71.6381 2.38737H69.7874V4.53885H72.4478V5.8228H69.7874V7.77764C69.7874 7.93958 69.88 8.03211 70.0419 8.03211H71.9389C72.1008 8.03211 72.1934 7.93958 72.1934 7.77764V7.28025H73.5699V8.5295C73.5699 9.08472 73.3269 9.31606 72.7833 9.31606H69.0587C68.5035 9.31606 68.2721 9.08472 68.2721 8.5295Z" fill="#222222"/>
<path id="Vector_11" d="M60.0034 8.5295V2.38737H59.2516V1.10342H62.5945C65.1277 1.10342 66.7818 2.60715 66.7818 5.19818C66.7818 7.78921 65.1277 9.31606 62.5945 9.31606H60.79C60.2348 9.31606 60.0034 9.08472 60.0034 8.5295ZM61.5187 7.77764C61.5187 7.93958 61.6113 8.03211 61.7732 8.03211H62.5135C64.156 8.03211 65.2086 7.04891 65.2086 5.19818C65.2086 3.37058 64.1329 2.38737 62.5135 2.38737H61.5187V7.77764Z" fill="#222222"/>
<path id="Vector_12" d="M51.485 9.31606V2.38737H50.2242C50.0623 2.38737 49.9697 2.47991 49.9697 2.64185V3.13923H48.6395V1.84372C48.6395 1.30006 48.8246 1.10342 49.3798 1.10342H55.1055C55.6608 1.10342 55.8458 1.30006 55.8458 1.84372V3.13923H54.5156V2.64185C54.5156 2.47991 54.4231 2.38737 54.2611 2.38737H53.0003V9.31606H51.485Z" fill="#222222"/>
<path id="Vector_13" d="M40.6121 5.14032C40.6121 2.76907 42.3935 0.9646 44.7763 0.9646C45.8289 0.9646 47.8878 1.40415 47.8878 2.80377V3.71757H46.5113V3.25488C46.5113 2.6534 45.5281 2.37579 44.811 2.37579C43.342 2.37579 42.1852 3.42839 42.1852 5.14032C42.1852 6.74815 43.3651 8.04366 44.8572 8.04366C46.4072 8.04366 47.3442 6.95636 47.3442 6.95636L48.1423 8.04366C48.1423 8.04366 46.9509 9.45485 44.8341 9.45485C42.3241 9.45485 40.6121 7.56941 40.6121 5.14032Z" fill="#222222"/>
<path id="Vector_14" d="M32.7553 6.38959V2.64185C32.7553 2.47991 32.6628 2.38737 32.5008 2.38737H32.0034V1.10342H33.484C34.0393 1.10342 34.2706 1.34633 34.2706 1.88999V6.34332C34.2706 7.41906 34.9531 8.04368 35.9825 8.04368C37.012 8.04368 37.6945 7.41906 37.6945 6.33175V1.88999C37.6945 1.34633 37.9258 1.10342 38.481 1.10342H39.9616V2.38737H39.4642C39.3023 2.38737 39.2098 2.47991 39.2098 2.64185V6.38959C39.2098 8.20562 37.9258 9.45487 35.9941 9.45487C34.0393 9.45487 32.7553 8.20562 32.7553 6.38959Z" fill="#222222"/>
<path id="Vector_15" d="M24.5792 8.5295V2.38737H23.8273V1.10342H27.1702C29.7034 1.10342 31.3575 2.60715 31.3575 5.19818C31.3575 7.78921 29.7034 9.31606 27.1702 9.31606H25.3658C24.8106 9.31606 24.5792 9.08472 24.5792 8.5295ZM26.0945 7.77764C26.0945 7.93958 26.187 8.03211 26.349 8.03211H27.0893C28.7318 8.03211 29.7844 7.04891 29.7844 5.19818C29.7844 3.37058 28.7087 2.38737 27.0893 2.38737H26.0945V7.77764Z" fill="#222222"/>
<path id="Vector_16" d="M14.5975 5.15189C14.5975 2.80377 16.4251 0.9646 18.8426 0.9646C21.2601 0.9646 23.0877 2.80377 23.0877 5.15189C23.0877 7.56941 21.2601 9.45485 18.8426 9.45485C16.4251 9.45485 14.5975 7.56941 14.5975 5.15189ZM16.1706 5.15189C16.1706 6.79442 17.362 8.04366 18.8426 8.04366C20.3232 8.04366 21.5146 6.79442 21.5146 5.15189C21.5146 3.57876 20.3232 2.37579 18.8426 2.37579C17.362 2.37579 16.1706 3.57876 16.1706 5.15189Z" fill="#222222"/>
<path id="Vector_17" d="M8.08707 9.31606V2.38737H7.33521V1.10342H11.0135C12.5173 1.10342 13.5699 2.02879 13.5699 3.57878C13.5699 5.05937 12.552 5.67243 12.205 5.74183V5.76496C12.205 5.76496 12.4594 5.88063 12.6098 6.18138L13.4079 7.76607C13.5352 8.00898 13.7318 8.03211 13.9863 8.03211H14.1367V9.31606H13.3385C12.7255 9.31606 12.4594 9.22353 12.1934 8.70301L11.1408 6.6325C10.9673 6.30862 10.7938 6.25078 10.3658 6.25078H9.60236V9.31606H8.08707ZM9.60236 4.95527H10.8053C11.5688 4.95527 12.0199 4.48102 12.0199 3.65975C12.0199 2.85006 11.5688 2.38737 10.8285 2.38737H9.60236V4.95527Z" fill="#222222"/>
<path id="Vector_18" d="M1.08356 9.31606V2.38737H0.331696V1.10342H4.091C5.62943 1.10342 6.70517 2.17916 6.70517 3.77542C6.70517 5.37168 5.62943 6.48212 4.091 6.48212H2.59885V9.31606H1.08356ZM2.59885 5.18661H3.81339C4.66936 5.18661 5.15517 4.63139 5.15517 3.77542C5.15517 2.93102 4.66936 2.38737 3.83653 2.38737H2.59885V5.18661Z" fill="#222222"/>
</g>
</svg>
