<svg width="43" height="39" viewBox="0 0 43 39" fill="none" xmlns="http://www.w3.org/2000/svg">
<g id="Group 128">
<path id="Vector 8" d="M0.511978 21.6746V33.1014L10.8675 37.7436L21.2231 33.1014L31.5787 37.7436L41.9342 33.1014V21.6746L31.5787 16.6754V5.60562L21.2231 0.606384L10.8675 5.60562V16.6754L0.511978 21.6746Z" fill="#FBFCFD"/>
<g id="Group">
<path id="Compound Path" d="M21.3794 0L10.4546 5.0138V16.4136L0.110352 21.1635V33.3022L11.0352 38.316L21.3794 33.5661L31.7237 38.316L42.6485 33.3022V21.1635L32.3042 16.4136V5.0138L21.3794 0ZM20.8517 10.5026V20.7941L11.5102 16.4664V6.17489L20.8517 10.5026ZM21.9072 10.5026L31.2487 6.17489V16.4664L21.9072 20.7941V10.5026ZM20.06 21.5857L11.0352 25.7023L1.90476 21.533L10.9296 17.3636L20.06 21.5857ZM11.5629 26.6523L20.8517 22.3774V32.6161L11.5629 36.891V26.6523ZM21.9072 22.3774L31.1959 26.6523V36.891L21.9072 32.6161V22.3774ZM31.7237 25.7023L22.6988 21.5857L31.8292 17.3636L40.8541 21.533L31.7237 25.7023ZM30.5098 5.38324L21.3794 9.60539L12.249 5.38324L21.3794 1.16109L30.5098 5.38324ZM1.16589 22.3246L10.5074 26.6523V36.891L1.16589 32.6161V22.3246ZM32.2515 36.891V26.6523L41.593 22.3246V32.6161L32.2515 36.891Z" fill="#36A800"/>
</g>
</g>
</svg>
